<svg xmlns="http://www.w3.org/2000/svg" width="200" height="200" viewBox="0 0 200 200">
  <defs>
    <linearGradient id="gradTalk" x1="0%" y1="0%" x2="100%" y2="100%">
      <stop offset="0%" style="stop-color:#9c27b0;stop-opacity:1" />
      <stop offset="100%" style="stop-color:#e91e63;stop-opacity:1" />
    </linearGradient>
  </defs>
  
  <!-- Background circle -->
  <circle cx="100" cy="100" r="90" fill="url(#gradTalk)" opacity="0.2"/>
  
  <!-- Chat bubbles -->
  <g transform="translate(100, 100)">
    <!-- Main chat bubble -->
    <rect x="-35" y="-30" width="70" height="50" rx="15" 
          fill="url(#gradTalk)" stroke="#9c27b0" stroke-width="2"/>
    <path d="M -10 20 L -5 30 L 0 20" fill="url(#gradTalk)"/>
    
    <!-- Sparkles -->
    <g fill="#ffd700">
      <!-- Top left sparkle -->
      <path d="M -45 -15 L -43 -20 L -41 -15 L -36 -13 L -41 -11 L -43 -6 L -45 -11 L -50 -13 Z"/>
      <!-- Top right sparkle -->
      <path d="M 41 -5 L 43 -10 L 45 -5 L 50 -3 L 45 -1 L 43 4 L 41 -1 L 36 -3 Z"/>
      <!-- Bottom sparkle -->
      <path d="M 35 30 L 37 25 L 39 30 L 44 32 L 39 34 L 37 39 L 35 34 L 30 32 Z"/>
    </g>
    
    <!-- Text lines inside bubble -->
    <line x1="-25" y1="-15" x2="15" y2="-15" stroke="#fff" stroke-width="3" stroke-linecap="round"/>
    <line x1="-25" y1="-3" x2="25" y2="-3" stroke="#fff" stroke-width="3" stroke-linecap="round"/>
    <line x1="-25" y1="9" x2="10" y2="9" stroke="#fff" stroke-width="3" stroke-linecap="round"/>
  </g>
</svg>
