<svg xmlns="http://www.w3.org/2000/svg" width="200" height="200" viewBox="0 0 200 200">
  <defs>
    <linearGradient id="grad1" x1="0%" y1="0%" x2="100%" y2="100%">
      <stop offset="0%" style="stop-color:#f53049;stop-opacity:1" />
      <stop offset="100%" style="stop-color:#f22a5a;stop-opacity:1" />
    </linearGradient>
  </defs>
  
  <!-- Background circle -->
  <circle cx="100" cy="100" r="90" fill="url(#grad1)" opacity="0.2"/>
  
  <!-- Trophy -->
  <g transform="translate(100, 100)">
    <!-- Cup -->
    <path d="M -30 -10 L -35 30 L 35 30 L 30 -10 Z" fill="url(#grad1)" stroke="#e15f6e" stroke-width="2"/>
    
    <!-- Handles -->
    <path d="M -30 -5 Q -45 -5 -45 5 Q -45 15 -30 15" fill="none" stroke="#e15f6e" stroke-width="3"/>
    <path d="M 30 -5 Q 45 -5 45 5 Q 45 15 30 15" fill="none" stroke="#e15f6e" stroke-width="3"/>
    
    <!-- Base -->
    <rect x="-25" y="30" width="50" height="8" fill="#e15f6e" rx="2"/>
    <rect x="-15" y="38" width="30" height="12" fill="#e15f6e" rx="2"/>
    
    <!-- Star -->
    <path d="M 0 -35 L 3 -25 L 13 -25 L 5 -18 L 8 -8 L 0 -15 L -8 -8 L -5 -18 L -13 -25 L -3 -25 Z" fill="#ffd700"/>
  </g>
</svg>
